
<svg xmlns="http://www.w3.org/2000/svg" viewBox="0 0 128 128" width="128" height="128">
  <rect width="128" height="128" rx="28" fill="#1C1B1F"/>
  <!-- Scale the 24x24 viewBox path up to fit our 128x128 canvas -->
  <g transform="translate(16, 16) scale(4)">
    <path d="M12,22C6.477,22,2,17.523,2,12S6.477,2,12,2s10,4.477,10,10S17.523,22,12,22z M12,4c-4.411,0-8,3.589-8,8s3.589,8,8,8 s8-3.589,8-8S16.411,4,12,4z" fill="#D0BCFF" />
    <path d="M10.59,16.41L6.17,12l1.42-1.42l3,3l7-7l1.41,1.41L10.59,16.41z" fill="#D0BCFF" />
  </g>
</svg>
